PathFileType	4	(X/Y/Z)	C:/Users/opensim2020/Desktop/walking_exp_matlab/subject01_walking13_straight_01.trc																																																																																																																												
DataRate	CameraRate	NumFrames	NumMarkers	Units	OrigDataRate	OrigDataStartFrame	OrigNumFrames																																																																																																																								
100	100	7	42	mm	100	690	142																																																																																																																								
Frame#	Time	LFHD			RFHD			LBHD			RBHD			C7			T10			CLAV			STRN			RBAK			LSHO			LUPA			LELB			LFRM			LWRA			LWRB			LFIN			RSHO			RUPA			RELB			RFRM			RWRA			RWRB			RFIN			LASI			RASI			LPSI			RPSI			LTHI			LKNE			LTIB			LANK			LHEE			LTOE			RTHI			RKNE			RTIB			RANK			RHEE			RTOE			*39			*40			*41		
		X1	Y1	Z1	X2	Y2	Z2	X3	Y3	Z3	X4	Y4	Z4	X5	Y5	Z5	X6	Y6	Z6	X7	Y7	Z7	X8	Y8	Z8	X9	Y9	Z9	X10	Y10	Z10	X11	Y11	Z11	X12	Y12	Z12	X13	Y13	Z13	X14	Y14	Z14	X15	Y15	Z15	X16	Y16	Z16	X17	Y17	Z17	X18	Y18	Z18	X19	Y19	Z19	X20	Y20	Z20	X21	Y21	Z21	X22	Y22	Z22	X23	Y23	Z23	X24	Y24	Z24	X25	Y25	Z25	X26	Y26	Z26	X27	Y27	Z27	X28	Y28	Z28	X29	Y29	Z29	X30	Y30	Z30	X31	Y31	Z31	X32	Y32	Z32	X33	Y33	Z33	X34	Y34	Z34	X35	Y35	Z35	X36	Y36	Z36	X37	Y37	Z37	X38	Y38	Z38	X39	Y39	Z39	X40	Y40	Z40	X41	Y41	Z41	X42	Y42	Z42
																																																																																																																															
89	0.88	475.46741	1658.50171	-1103.80383	484.56641	1662.44055	-989.42407	354.332	1630.09302	-1100.91577	361.04752	1633.5426	-979.86987	289.77393	1433.45142	-1056.61499	253.64519	1137.70142	-1038.72766	431.73611	1362.13879	-1049.44409	474.88678	1209.09497	-1049.65845	230.23537	1239.27869	-973.71509	373.19028	1386.49255	-1211.84167	347.41953	1203.64746	-1296.1543	334.59998	1050.68872	-1298.26367	388.75128	946.85205	-1311.68286	479.97324	845.77521	-1278.37268	429.38303	832.06531	-1306.88245	486.31348	772.06378	-1313.45715	363.77853	1396.39221	-900.83984	296.29218	1203.88367	-794.43201	295.60843	1075.43103	-786.52173	354.7847	963.88483	-769.62	462.96249	879.93347	-806.82587	425.31482	863.172	-766.72028	486.01691	804.50128	-774.91193	434.73569	933.86945	-1140.90491	426.04825	931.48944	-923.55011	246.58313	944.84637	-1095.10925	243.9084	943.40155	-949.73499	432.77292	601.00226	-1187.21448	438.00647	467.31122	-1164.39221	378.86154	286.41245	-1171.66296	328.19116	74.76778	-1121.04956	276.78671	48.85618	-1072.3418	473.59427	36.30303	-1117.5614	433.35138	600.41864	-856.15454	463.00967	445.45868	-871.49738	315.96072	350.45633	-872.19092	159.64053	218.37041	-922.87537	104.70231	226.41208	-979.1972	210.63383	82.50835	-919.18835	478.4277	1697.26172	-1013.56635	1972.9563	1023.72125	-3102.0127	2012.51758	1022.08612	-3140.67358
90	0.89	488.94922	1659.15405	-1102.71558	497.71298	1662.66113	-988.26038	367.60565	1631.54553	-1100.34241	373.98792	1634.56592	-979.19092	301.87234	1434.53027	-1056.81885	265.42014	1138.78015	-1039.18811	443.69382	1363.20349	-1049.29126	486.78458	1210.17554	-1049.5686	241.87025	1240.44128	-974.01624	385.56171	1388.00049	-1211.84937	362.14035	1205.18787	-1296.63098	352.29865	1051.97363	-1299.79126	409.73132	949.66821	-1312.74182	503.92322	851.66394	-1278.48218	454.09149	836.32129	-1307.53198	513.05969	778.41754	-1313.88794	375.41156	1397.32727	-900.81305	307.06421	1205.01392	-794.73352	305.57181	1076.55603	-786.98578	361.40451	963.58282	-769.09674	467.50192	876.28564	-805.09045	429.08054	860.92139	-765.15076	488.12448	800.3924	-772.65277	446.42743	935.13873	-1141.53503	438.33768	933.1413	-924.3833	258.07373	946.13123	-1094.30542	256.48776	944.64801	-948.94159	438.81464	601.23779	-1187.13489	441.02283	467.12631	-1165.02405	380.00409	286.69455	-1171.82715	328.56625	75.49797	-1121.05029	276.95981	49.91483	-1072.22449	473.50153	36.24035	-1117.5719	452.82846	603.97058	-856.2511	486.35266	449.78543	-871.8764	342.24899	350.11005	-872.90137	192.04947	210.96704	-923.84015	135.41785	215.29271	-979.98871	251.85275	79.8025	-919.26379	491.94742	1697.59912	-1012.26257	1973.0658	1023.52362	-3101.99854	2012.57263	1022.09412	-3140.67456
91	0.9	502.38519	1659.62805	-1101.53418	510.94073	1662.78821	-987.0744	380.8707	1632.91907	-1099.6731	386.93069	1635.57581	-978.36127	313.93402	1435.5896	-1056.78149	277.14706	1139.81714	-1039.41699	455.60504	1364.10071	-1049.02625	498.57562	1211.06128	-1049.36792	253.58195	1241.40234	-974.28619	397.87225	1389.30017	-1211.60303	376.64633	1206.62732	-1297.06836	369.84137	1053.18494	-1301.10901	430.89157	952.68372	-1313.50391	528.01184	858.05261	-1278.76135	478.88391	840.84271	-1308.0437	539.89105	785.26971	-1314.20178	386.92944	1398.03906	-900.73346	317.69809	1205.93481	-794.98901	315.43149	1077.54272	-787.47461	368.33643	963.5036	-768.53802	471.93246	872.72711	-803.38367	432.85654	858.87103	-763.42743	490.19968	796.54486	-770.32422	457.10083	935.66638	-1142.26294	450.48795	934.70538	-925.11334	269.4964	947.35669	-1093.47327	268.5672	946.16589	-948.09979	444.73477	601.34448	-1186.96216	443.86179	466.98279	-1165.69702	381.31757	287.01541	-1171.854	328.99667	76.4799	-1120.94055	277.19629	50.9864	-1071.95422	473.61108	36.17136	-1117.55383	472.0119	607.51111	-856.40704	508.83392	454.14407	-872.41571	368.39658	349.03525	-873.6134	224.63785	202.85001	-924.79663	167.42999	202.92435	-980.54712	294.05753	77.09952	-918.81146	505.51007	1697.82361	-1010.93573	1973.19104	1023.34058	-3102.03809	2012.56384	1022.20129	-3140.59058
92	0.91	515.77478	1660.02661	-1100.32751	524.0238	1662.8302	-985.89606	394.07468	1634.12427	-1098.88208	399.82437	1636.36121	-977.599	326.00821	1436.49609	-1056.77527	289.00653	1140.67334	-1039.63513	467.54608	1364.85156	-1048.71423	510.39905	1211.82715	-1049.16125	265.26697	1242.24438	-974.59283	410.15778	1390.45288	-1211.42114	390.79736	1207.96948	-1297.40576	387.21866	1054.33728	-1302.53967	451.52997	955.77924	-1314.43396	551.94293	864.79822	-1278.89917	503.59915	845.8017	-1308.38049	566.5766	792.59015	-1314.35596	398.4978	1398.74377	-900.48584	327.99081	1206.64966	-795.20856	325.25925	1078.53516	-787.8183	375.2934	963.4397	-767.84674	476.23868	869.20276	-801.66162	436.80258	856.83765	-761.6153	492.06067	792.84155	-767.7085	468.17252	936.29053	-1142.71741	462.60107	936.13245	-925.7254	280.87314	948.50696	-1092.6687	280.63525	947.2793	-947.32129	450.73322	601.48657	-1186.78149	447.06339	466.99631	-1166.18372	383.07535	287.58005	-1171.74768	329.35049	77.28529	-1120.54443	277.832	52.11152	-1071.25012	473.62299	36.10146	-1117.52405	490.36954	610.96973	-856.56061	530.42224	458.40781	-873.11774	394.75818	347.08139	-874.29523	258.44321	193.65189	-925.33545	200.69861	189.8985	-981.3197	336.52631	73.89473	-918.26581	518.91803	1697.93787	-1009.39203	1973.04187	1023.82825	-3101.97388	2012.60205	1022.15558	-3140.59619
93	0.92	529.16467	1660.32019	-1099.10352	537.05518	1662.75073	-984.61298	407.27457	1635.15186	-1098.02649	412.73703	1637.00854	-976.80676	338.15598	1437.25684	-1056.64575	300.66043	1141.49426	-1039.69043	479.50189	1365.47327	-1048.29578	522.15802	1212.42383	-1048.87817	277.08963	1242.92407	-974.94946	422.50375	1391.53601	-1211.16528	404.72153	1209.21082	-1297.745	404.44113	1055.38611	-1303.71069	472.21286	959.03796	-1315.18042	575.87659	871.9845	-1279.15027	528.26862	851.07391	-1308.52527	593.20093	800.39972	-1314.37463	410.07846	1399.25208	-900.30267	338.53687	1207.33765	-795.44623	335.22394	1079.30273	-788.23853	382.04959	963.14893	-767.2207	480.32367	865.755	-799.85443	440.5481	855.05023	-759.76239	493.91644	789.35175	-765.24713	478.84619	936.72559	-1142.66797	474.67734	937.41388	-926.16656	292.19672	949.45801	-1091.86401	292.71292	948.2373	-946.27332	456.92535	601.61005	-1186.56738	450.73505	467.16177	-1166.52673	385.23734	288.18292	-1171.41809	329.79532	78.31278	-1120.07764	278.09436	53.28172	-1070.40771	473.62845	36.1072	-1117.53076	508.64145	614.2962	-856.53992	551.02563	462.3978	-873.96228	420.89459	344.14285	-875.0542	292.74857	183.69867	-926.22192	235.51381	175.81381	-982.17816	378.82358	70.31765	-917.67371	532.28827	1697.91125	-1008.02808	1973.11597	1023.38342	-3101.99414	2012.54968	1022.01312	-3140.67065
94	0.93	542.49158	1660.55261	-1097.87231	550.06604	1662.58228	-983.28546	420.46024	1636.0769	-1097.15344	425.52603	1637.55542	-975.98474	350.31143	1437.93567	-1056.40479	312.42731	1142.21838	-1039.66748	491.46881	1366.00098	-1047.84009	533.98413	1212.8269	-1048.59863	288.90692	1243.47449	-975.29926	434.91116	1392.60144	-1210.8728	418.61356	1210.32959	-1297.93323	421.55478	1056.54761	-1304.91956	492.83578	962.44287	-1315.85815	599.41833	879.40784	-1279.10132	552.70471	856.64465	-1308.54321	619.61249	808.59521	-1314.25684	421.71048	1399.68555	-900.00531	348.95673	1207.80066	-795.66998	345.19254	1080.04541	-788.44855	388.91742	962.98895	-766.508	484.43021	862.51892	-797.96857	444.26468	853.32892	-757.94537	495.56552	786.08337	-762.61407	490.159	937.06287	-1143.21765	486.7793	938.48291	-926.53162	303.51184	950.22021	-1091.10706	304.73666	948.81561	-945.36115	463.25198	601.84381	-1186.3667	454.81024	467.33386	-1166.60681	387.68317	288.85196	-1170.93835	330.15363	79.41811	-1119.53845	278.39499	54.82553	-1069.53198	473.72385	36.15218	-1117.49268	525.89764	617.28851	-856.65094	571.11047	466.13803	-874.87238	447.3942	340.54086	-875.66815	327.7648	173.08604	-927.01794	271.41577	161.30603	-983.31128	422.02716	67.04262	-916.77191	545.50415	1697.80859	-1006.51892	1973.21924	1023.4198	-3101.81934	2012.48865	1021.9541	-3140.75903
95	0.94	555.75903	1660.64746	-1096.59338	563.05676	1662.40747	-981.99292	433.55838	1636.82922	-1096.32776	438.41055	1637.97107	-974.9903	362.51999	1438.50085	-1056.18262	324.09244	1142.89038	-1039.49536	503.51276	1366.36035	-1047.31091	545.79498	1213.0929	-1048.29822	300.74124	1243.84607	-975.56616	447.31433	1393.26196	-1210.27747	432.27148	1211.3186	-1298.05713	438.48172	1057.58289	-1305.87134	513.34625	965.87042	-1316.24341	622.69012	887.10577	-1278.93494	576.98059	862.48041	-1308.49646	645.63739	817.12207	-1313.95142	433.41617	1399.90015	-899.64349	359.60565	1208.23914	-795.78064	355.22592	1080.6897	-788.70612	395.83481	962.88123	-765.76526	488.23804	859.32404	-796.06573	447.68283	851.57397	-756.16925	497.24176	782.91205	-760.00079	501.02585	937.22882	-1143.34106	498.81067	939.36847	-926.6153	314.70029	950.70789	-1090.2511	316.66458	949.4588	-944.39648	469.72446	602.05237	-1186.08948	458.94778	467.45163	-1166.40991	390.06552	289.57605	-1170.44263	330.56125	80.73402	-1118.8551	278.57953	56.74047	-1068.77625	473.70847	36.15768	-1117.44775	542.96967	620.19385	-856.55908	590.06708	469.40744	-875.96484	473.69037	336.05661	-876.46417	364.20419	162.71606	-927.52856	308.2995	146.31139	-984.69403	465.31863	63.89995	-915.78223	558.73358	1697.66882	-1005.13672	1973.17456	1023.42004	-3102.05615	2012.55054	1022.20093	-3140.62915
